<?xml version="1.0" encoding="UTF-8"?><svg id="Layer_1" xmlns="http://www.w3.org/2000/svg" viewBox="0 0 256 256"><defs><style>.cls-1{fill:#ffffe3;}.cls-2{fill:#0000c4;}.cls-3{fill:#00004c;}</style></defs><path class="cls-1" d="M182,11h-108c-34.74,0-63,28.26-63,63v108c0,34.74,28.26,63,63,63h108c34.74,0,63-28.26,63-63v-108c0-34.74-28.26-63-63-63Z"/><path class="cls-3" d="M177.13,105.42c-3.22,0-5.28,1.36-6.29,3.45-2.88,5.96-8.78,10.14-15.84,10.14s-14.65-4.41-18.17-10.65c-1.04-1.84-3-2.93-5.11-2.93h-4.12c-4.77,0-7.61,4.28-6.11,8.26,5.11,13.6,18.14,23.32,33.52,23.32s28.4-9.72,33.52-23.32c1.5-3.98-1.34-8.26-5.6-8.26h-5.8Z"/><rect class="cls-3" x="127.86" y="167.33" width="54" height="18" rx="6" ry="6"/><path class="cls-3" d="M59.58,137c12.2,0,19.54-6.13,23.42-15.43v18.76c0,4.97-4.03,9-9,9h-3c-3.31,0-6,2.69-6,6v6c0,3.31,2.69,6,6,6h3c14.91,0,27-12.09,27-27v-28.91c0-3.31-2.69-6-6-6h-8.77c-2.32,0-4.38,1.36-5.39,3.45-2.88,5.96-8.78,10.14-15.84,10.14-18.49,0-18-13.58-18-13.58v28.94c3.67,1.67,7.85,2.64,12.58,2.64Z"/><path class="cls-2" d="M182,29h-108c-24.82,0-45,20.19-45,45v108c0,24.81,20.18,45,45,45h108c24.82,0,45-20.19,45-45v-108c0-24.81-20.18-45-45-45ZM209,182c0,14.91-12.09,27-27,27h-108c-14.91,0-27-12.09-27-27v-108c0-14.91,12.09-27,27-27h108c14.91,0,27,12.09,27,27v108Z"/></svg>